<?xml version="1.0" standalone="no"?>
<!DOCTYPE svg PUBLIC "-//W3C//DTD SVG 20010904//EN"
 "http://www.w3.org/TR/2001/REC-SVG-20010904/DTD/svg10.dtd">
<svg version="1.0" xmlns="http://www.w3.org/2000/svg"
 width="3508.000000pt" height="2480.000000pt" viewBox="0 0 3508.000000 2480.000000"
 preserveAspectRatio="xMidYMid meet">

<g transform="translate(0.000000,2480.000000) scale(0.100000,-0.100000)"
fill="#000000" stroke="none">
<path d="M17450 16309 c-137 -28 -243 -174 -226 -313 8 -70 49 -148 102 -195
43 -38 71 -53 257 -141 117 -55 204 -138 236 -225 30 -78 26 -188 -8 -253 -34
-66 -96 -128 -160 -159 -78 -39 -190 -39 -271 -2 -92 43 -170 137 -185 222 -6
28 -11 37 -22 33 -8 -4 -26 -9 -39 -12 -22 -6 -24 -10 -18 -38 20 -96 115
-221 202 -265 110 -56 232 -63 348 -20 45 17 75 38 130 93 94 94 118 152 118
286 0 136 -24 191 -123 290 -76 75 -90 83 -291 179 -155 73 -222 173 -191 285
43 159 232 215 344 103 23 -23 47 -50 52 -60 9 -15 14 -16 43 -6 36 12 38 19
18 57 -53 101 -197 166 -316 141z"/>
<path d="M12225 16280 c4 -11 114 -319 245 -683 235 -656 238 -662 265 -662
27 0 29 6 266 665 132 366 242 673 245 683 5 16 0 18 -37 15 l-43 -3 -215
-609 c-118 -335 -217 -605 -219 -600 -1 5 -99 279 -216 609 l-212 600 -43 3
c-39 3 -42 2 -36 -18z"/>
<path d="M15025 16288 c-2 -7 -115 -314 -250 -682 -135 -367 -245 -670 -245
-673 0 -2 19 -3 42 -1 l43 3 110 298 110 297 235 0 236 0 108 -300 108 -300
44 0 43 0 -20 53 c-11 28 -122 336 -248 682 l-228 630 -42 3 c-27 2 -43 -1
-46 -10z m148 -396 c54 -147 97 -271 97 -275 0 -4 -90 -7 -200 -7 -110 0 -200
3 -200 8 0 15 195 542 201 542 3 0 49 -121 102 -268z"/>
<path d="M19450 15615 l0 -685 40 0 40 0 0 320 0 320 350 0 350 0 0 -320 0
-320 40 0 40 0 0 685 0 685 -40 0 -40 0 0 -325 0 -325 -350 0 -350 0 0 325 0
325 -40 0 -40 0 0 -685z"/>
<path d="M22275 16288 c-2 -7 -115 -314 -250 -682 -135 -367 -245 -670 -245
-673 0 -2 19 -3 42 -1 l43 3 110 298 110 297 235 0 236 0 108 -300 108 -300
44 0 43 0 -20 53 c-11 28 -122 336 -248 682 l-228 630 -42 3 c-27 2 -43 -1
-46 -10z m148 -396 c54 -147 97 -271 97 -275 0 -4 -90 -7 -200 -7 -110 0 -200
3 -200 8 0 15 195 542 201 542 3 0 49 -121 102 -268z"/>
<path d="M16920 13714 c-1752 -514 -3202 -939 -3223 -945 -36 -9 -38 -13 -32
-37 3 -15 10 -30 14 -35 5 -5 370 96 574 159 16 5 17 -30 17 -645 l0 -651 40
0 40 0 0 663 0 662 2863 838 c1574 461 2872 840 2885 844 l22 5 0 -146 0 -146
-26 0 c-15 0 -38 -12 -55 -29 -28 -28 -29 -34 -29 -118 0 -101 -11 -126 -84
-193 -27 -25 -60 -70 -79 -109 -29 -59 -32 -75 -32 -151 1 -104 29 -175 100
-245 71 -71 141 -100 245 -100 71 0 94 4 141 26 78 37 133 90 170 165 71 145
37 319 -84 421 -60 50 -71 77 -77 186 -5 93 -7 101 -33 123 -16 14 -41 24 -58
24 l-29 0 0 185 0 185 -42 -1 c-25 0 -1385 -394 -3228 -935z m3306 453 c1 -25
1 -25 -3 -2 -4 23 -8 25 -63 25 -56 0 -59 -1 -63 -27 -4 -26 -4 -25 -6 5 l-1
33 68 -3 c65 -3 67 -4 68 -31z m23 -159 c9 -28 34 -64 76 -108 88 -92 100
-117 100 -220 0 -94 -13 -129 -69 -188 -44 -48 -101 -74 -172 -80 -111 -8
-205 40 -262 136 -24 41 -27 57 -27 132 0 102 17 139 95 215 51 49 90 110 90
140 0 12 14 15 78 15 l79 0 12 -42z"/>
<path d="M19946 13692 c-12 -14 -14 -28 -10 -53 19 -98 87 -165 186 -183 30
-6 39 -3 52 15 22 32 5 55 -45 63 -54 9 -105 58 -115 112 -11 64 -36 81 -68
46z"/>
<path d="M19742 14108 c-23 -23 -12 -55 33 -97 47 -43 63 -49 83 -29 22 22 13
45 -38 92 -53 49 -60 52 -78 34z"/>
<path d="M20500 14074 c-51 -47 -60 -70 -38 -92 19 -19 35 -14 78 25 57 51 66
70 44 94 -9 10 -21 19 -26 19 -5 0 -31 -21 -58 -46z"/>
<path d="M19571 13701 c-24 -44 9 -65 94 -59 55 3 78 25 59 56 -8 13 -27 18
-77 20 -57 2 -67 0 -76 -17z"/>
<path d="M20602 13708 c-7 -7 -12 -19 -12 -28 0 -28 22 -40 73 -40 56 0 87 13
87 38 0 31 -22 42 -80 42 -31 0 -61 -5 -68 -12z"/>
<path d="M19772 13349 c-80 -76 -31 -124 53 -52 45 39 54 60 33 81 -20 20 -41
13 -86 -29z"/>
<path d="M20462 13378 c-20 -20 -14 -35 31 -77 43 -41 73 -51 95 -29 18 18 16
23 -35 72 -49 47 -70 55 -91 34z"/>
<path d="M20132 13248 c-15 -15 -16 -112 -2 -139 6 -10 19 -19 30 -19 27 0 40
30 40 92 0 55 -12 78 -40 78 -9 0 -21 -5 -28 -12z"/>
<path d="M12540 12939 c-137 -28 -243 -174 -226 -313 8 -70 49 -148 102 -195
43 -38 71 -53 257 -141 117 -55 204 -138 236 -225 30 -78 26 -188 -8 -253 -34
-66 -96 -128 -160 -159 -78 -39 -190 -39 -271 -2 -92 43 -170 137 -185 222 -6
28 -11 37 -22 33 -8 -4 -26 -9 -39 -12 -22 -6 -24 -10 -18 -38 20 -96 115
-221 202 -265 110 -56 232 -63 348 -20 45 17 75 38 130 93 94 94 118 152 118
286 0 136 -24 191 -123 290 -76 75 -90 83 -291 179 -155 73 -222 173 -191 285
43 159 232 215 344 103 23 -23 47 -50 52 -60 9 -15 14 -16 43 -6 36 12 38 19
18 57 -53 101 -197 166 -316 141z"/>
<path d="M22045 12939 c-253 -42 -472 -231 -555 -479 -31 -93 -38 -261 -16
-366 49 -225 233 -436 443 -509 237 -83 488 -44 673 104 158 126 250 289 269
478 23 221 -47 419 -200 573 -166 165 -387 237 -614 199z m279 -95 c153 -37
317 -169 389 -314 49 -100 67 -175 67 -285 0 -110 -18 -185 -67 -285 -67 -133
-219 -263 -363 -309 -113 -36 -294 -32 -405 10 -207 77 -370 281 -397 496 -32
250 72 477 281 611 146 95 313 120 495 76z"/>
<path d="M15672 12403 l3 -528 32 -68 c43 -91 129 -177 220 -220 65 -31 74
-32 188 -32 116 0 123 1 186 32 119 59 197 147 239 268 19 55 20 84 20 567 l0
508 -40 0 -39 0 -3 -517 -3 -518 -28 -56 c-32 -67 -118 -151 -184 -182 -39
-18 -66 -22 -148 -22 -89 0 -106 3 -156 28 -67 32 -151 118 -182 184 -22 47
-22 57 -25 566 l-3 517 -40 0 -40 0 3 -527z"/>
<path d="M17870 12245 l0 -687 213 5 c180 4 223 8 287 26 119 35 186 76 281
171 71 70 94 103 127 171 56 117 76 214 70 348 -14 303 -206 545 -495 622 -62
17 -119 22 -280 26 l-203 6 0 -688z m454 575 c108 -27 190 -74 266 -150 116
-115 170 -250 170 -422 0 -189 -46 -307 -169 -429 -129 -129 -235 -167 -483
-176 l-158 -6 0 602 0 601 148 0 c115 0 166 -4 226 -20z"/>
<path d="M20120 12245 l0 -685 40 0 40 0 0 685 0 685 -40 0 -40 0 0 -685z"/>
</g>
</svg>
